<?xml version="1.0" encoding="UTF-8" standalone="no"?>
<svg
   viewBox="0 0 261.56641 45.824219"
   width="261.56641"
   height="45.824219"
   version="1.1"
   id="svg4"
   xmlns="http://www.w3.org/2000/svg"
   xmlns:svg="http://www.w3.org/2000/svg"
   xmlns:bx="https://boxy-svg.com">
  <defs
     id="defs4">
    <bx:grid
       x="0"
       y="0"
       width="20"
       height="20"
       divisions="2" />
    <bx:export>
      <bx:file
         format="svg"
         href="#object-0" />
      <bx:file
         format="svg"
         href="#object-1"
         path="big t.svg" />
      <bx:file
         format="svg"
         href="#object-2"
         path="Untitled 2.svg" />
      <bx:file
         format="svg"
         href="#object-3"
         path="mini t.svg" />
      <bx:file
         format="svg"
         path="Untitled 3.svg" />
    </bx:export>
  </defs>
  <path
     id="path8"
     style="fill:#c80815;fill-opacity:1;stroke-width:0.31068"
     d="m 110.40039,-1.3476502e-6 c -0.31912,0 -0.57617,0.2986060076502 -0.57617,0.6699230076502 V 12.734373 c 0,0.371316 0.25705,0.669923 0.57617,0.669923 h 39.16993 c 0.31912,0 0.57617,-0.298607 0.57617,-0.669923 V 0.66992166 c 0,-0.371317 -0.25705,-0.6699230076502 -0.57617,-0.6699230076502 z M 130.38672,13.533201 c -0.12712,0.0045 -0.2561,0.04624 -0.36718,0.126954 l -9.625,6.99219 c -0.29624,0.215226 -0.35977,0.627591 -0.14454,0.923827 l 16.78125,23.097654 c 0.21523,0.296236 0.6276,0.361714 0.92383,0.146487 l 9.625,-6.99219 c 0.29624,-0.215226 0.36171,-0.627591 0.14649,-0.923827 L 130.94336,13.804687 c -0.13451,-0.185148 -0.34477,-0.278886 -0.55664,-0.271486 z" />
  <path
     style="fill:#000;stroke-width:0.31068"
     d="m 232.0625,0.51171666 c -0.29866,0 -0.53246,0.08519 -0.70312,0.255859 -0.17067,0.170668 -0.25586,0.40641194 -0.25586,0.70507894 V 44.35156 c 0,0.298668 0.0852,0.534415 0.25586,0.705079 0.17066,0.170668 0.40446,0.255859 0.70312,0.255859 h 9.98438 c 0.29866,0 0.53441,-0.08519 0.70508,-0.255859 0.17066,-0.170664 0.25586,-0.406411 0.25586,-0.705079 l -0.12891,-19.199215 c 0,-0.170668 0.0654,-0.255863 0.19336,-0.255863 0.128,0 0.21319,0.06341 0.25586,0.191407 l 4.86328,19.39258 c 0.128,0.554666 0.46877,0.832029 1.02344,0.832029 h 11.39257 c 0.29867,0 0.53246,-0.08519 0.70313,-0.255859 0.17067,-0.170664 0.25586,-0.406411 0.25586,-0.705079 V 1.4726546 c 0,-0.298667 -0.0852,-0.53441094 -0.25586,-0.70507894 -0.17067,-0.170665 -0.40446,-0.255859 -0.70313,-0.255859 h -9.98437 c -0.29867,0 -0.53246,0.08519 -0.70312,0.255859 -0.17067,0.170668 -0.25586,0.40641194 -0.25586,0.70507894 l 0.0625,19.3281244 c 0,0.170668 -0.0634,0.255859 -0.1914,0.255859 -0.128,0 -0.21319,-0.08519 -0.25586,-0.255859 L 244.35158,1.3437496 c -0.128,-0.55466594 -0.46877,-0.83203294 -1.02344,-0.83203294 z"
     id="path7" />
  <path
     style="fill:#000;stroke-width:0.31068"
     d="m 185.02735,0.51171666 c -0.59734,0 -0.89649,0.25558 -0.89649,0.76758094 v 0.255859 l 8.70313,42.9453124 c 0.128,0.554666 0.49055,0.832029 1.08789,0.832029 h 8.89648 c 0.64,0 0.98077,-0.29915 1.02344,-0.896482 l 2.17578,-20.544925 c 0,-0.127999 0.0654,-0.191403 0.19336,-0.191403 0.17067,0 0.25586,0.0634 0.25586,0.191403 l 2.6875,20.544925 c 0.0427,0.597332 0.38344,0.896482 1.02344,0.896482 h 8.83203 c 0.59733,0 0.95989,-0.277363 1.08789,-0.832029 l 8.19336,-42.9453124 c 0.128,-0.68266894 -0.17115,-1.02343994 -0.89648,-1.02343994 h -10.17579 c -0.59733,0 -0.91827,0.299151 -0.96093,0.89648594 l -1.85547,19.5839834 c 0,0.127999 -0.0852,0.191406 -0.25586,0.191406 -0.128,-0.04266 -0.19141,-0.106072 -0.19141,-0.191406 L 211.26563,1.4082026 c -0.0427,-0.59733494 -0.38344,-0.89648594 -1.02344,-0.89648594 h -7.80859 c -0.64,0 -0.98077,0.299151 -1.02344,0.89648594 l -2.36719,19.5195304 c 0,0.128 -0.0654,0.191407 -0.19336,0.191407 -0.128,-0.04267 -0.1914,-0.106073 -0.1914,-0.191407 L 196.48242,1.4082026 c -0.0427,-0.59733494 -0.38343,-0.89648594 -1.02343,-0.89648594 z"
     id="path6" />
  <path
     style="fill:#000;stroke-width:0.31068"
     d="m 167.13868,-1.3476502e-6 c -4.30934,0 -7.76648,1.2382229476502 -10.36915,3.7128899476502 -2.56,2.474666 -3.83984,5.801089 -3.83984,9.9824224 v 18.433593 c 0,4.181333 1.27984,7.507756 3.83984,9.982423 2.60267,2.474666 6.05981,3.71289 10.36915,3.71289 4.30933,0 7.74273,-1.238224 10.30273,-3.71289 2.60267,-2.474667 3.9043,-5.80109 3.9043,-9.982423 V 13.695311 c 0,-4.1813334 -1.30163,-7.5077564 -3.9043,-9.9824224 -2.56,-2.474667 -5.9934,-3.7128899476502 -10.30273,-3.7128899476502 z m 0,10.3046893476502 c 0.68266,0 1.2156,0.255576 1.5996,0.767577 0.384,0.512 0.57618,1.215329 0.57618,2.111328 v 19.457033 c 0,0.895998 -0.19218,1.599327 -0.57618,2.111325 -0.384,0.512 -0.91694,0.76758 -1.5996,0.76758 -0.68267,0 -1.21561,-0.25558 -1.59961,-0.76758 -0.38401,-0.511998 -0.57618,-1.215327 -0.57618,-2.111325 V 13.183593 c 0,-0.895999 0.19217,-1.599328 0.57618,-2.111328 0.384,-0.512001 0.91694,-0.767577 1.59961,-0.767577 z"
     id="path5" />
  <path
     style="fill:#000;stroke-width:0.31068"
     d="m 77.535161,-1.3476502e-6 c -0.29867,0 -0.53246,0.08519000765 -0.70313,0.2558590076502 -0.17066,0.170668 -0.25586,0.406412 -0.25586,0.705079 V 43.839842 c 0,0.298667 0.0852,0.534411 0.25586,0.705079 0.17067,0.170668 0.40446,0.255859 0.70313,0.255859 h 9.98437 c 0.29867,0 0.53246,-0.08519 0.70313,-0.255859 0.17066,-0.170668 0.25586,-0.406412 0.25586,-0.705079 l -0.12696,-19.199219 c 0,-0.170665 0.0634,-0.255859 0.19141,-0.255859 0.128,0 0.21319,0.06341 0.25586,0.191407 l 4.86523,19.39258 c 0.128,0.554666 0.46878,0.832029 1.02344,0.832029 h 11.392579 c 0.29867,0 0.53246,-0.08519 0.70313,-0.255859 0.17066,-0.170668 0.25586,-0.406412 0.25586,-0.705079 V 0.96093666 c 0,-0.298667 -0.0852,-0.534411 -0.25586,-0.705079 -0.17067,-0.170665 -0.40446,-0.2558590076502 -0.70313,-0.2558590076502 h -9.984379 c -0.29866,0 -0.53441,0.08519000765 -0.70507,0.2558590076502 -0.17067,0.170668 -0.25586,0.406412 -0.25586,0.705079 l 0.0644,19.32617334 c 0,0.170665 -0.0634,0.25781 -0.1914,0.25781 -0.128,0 -0.2132,-0.08714 -0.25586,-0.25781 L 89.824171,0.83203166 c -0.128,-0.554669 -0.47072,-0.8320330076502 -1.02539,-0.8320330076502 z"
     id="path3" />
  <path
     style="fill:#000;stroke-width:0.31068"
     d="m 62.718751,-1.3476502e-6 c -0.29866,0 -0.53246,0.08519000765 -0.70312,0.2558590076502 -0.17067,0.170668 -0.25586,0.406412 -0.25586,0.705079 V 43.839842 c 0,0.298667 0.0852,0.534411 0.25586,0.705079 0.17066,0.170668 0.40446,0.255859 0.70312,0.255859 h 10.11328 c 0.29867,0 0.53246,-0.08519 0.70313,-0.255859 0.17067,-0.170668 0.25586,-0.406412 0.25586,-0.705079 V 0.96093666 c 0,-0.298667 -0.0852,-0.534411 -0.25586,-0.705079 -0.17067,-0.170665 -0.40446,-0.2558590076502 -0.70313,-0.2558590076502 z"
     id="path2" />
  <path
     style="fill:#000;stroke-width:0.31068"
     d="m 31.455081,-1.3476502e-6 c -0.29867,0 -0.53246,0.08519000765 -0.70312,0.2558590076502 -0.17067,0.170668 -0.25586,0.406412 -0.25586,0.705079 V 43.839842 c 0,0.298667 0.0852,0.534411 0.25586,0.705079 0.17066,0.170668 0.40445,0.255859 0.70312,0.255859 h 10.11133 c 0.29867,0 0.53441,-0.08519 0.70508,-0.255859 0.17066,-0.170668 0.25586,-0.406412 0.25586,-0.705079 V 28.54492 c 0,-0.255999 0.12876,-0.384765 0.38476,-0.384765 h 3.58399 c 2.47466,0 4.65001,-0.554727 6.52734,-1.664063 1.87733,-1.152 3.32756,-2.772615 4.35156,-4.86328 1.06667,-2.090668 1.59961,-4.501757 1.59961,-7.232422 0,-2.815999 -0.55473,-5.3122824 -1.66406,-7.4882814 -1.10933,-2.176002 -2.66654,-3.861975 -4.67188,-5.056641 C 50.676011,0.61813266 48.415471,-1.3476502e-6 45.855471,-1.3476502e-6 Z M 42.912111,10.304688 h 0.83203 c 0.98134,0 1.74807,0.38239 2.30274,1.15039 0.59733,0.725334 0.89648,1.793172 0.89648,3.201171 0,1.408 -0.29915,2.473887 -0.89648,3.199218 -0.55467,0.682668 -1.3214,1.02539 -2.30274,1.02539 h -0.83203 c -0.256,0 -0.38476,-0.128765 -0.38476,-0.384764 v -7.808592 c 0,-0.256003 0.12876,-0.382813 0.38476,-0.382813 z"
     id="path1" />
  <path
     style="fill:#000;stroke-width:0.31068"
     d="m 0.95899042,-1.3476502e-6 c -0.29867,0 -0.53246,0.08519000765 -0.70313,0.2558590076502 C 0.08520042,0.42652566 4.2005792e-7,0.66226966 4.2005792e-7,0.96093666 V 31.488281 c 0,2.730665 0.57455999994208,5.141754 1.72656997994208,7.232422 1.152,2.090665 2.77456,3.711279 4.86523,4.86328 2.09067,1.152001 4.5215906,1.728515 7.2949206,1.728515 2.73067,0 5.14176,-0.576514 7.23242,-1.728515 2.09067,-1.152001 3.71128,-2.772615 4.86328,-4.86328 1.152,-2.090668 1.72852,-4.501757 1.72852,-7.232422 V 0.96093666 c 0,-0.298667 -0.0852,-0.534411 -0.25586,-0.705079 -0.17067,-0.170665 -0.40446,-0.2558590076502 -0.70312,-0.2558590076502 h -10.11329 c -0.29866,0 -0.53245,0.08519000765 -0.70312,0.2558590076502 -0.17067,0.170668 -0.25586,0.406412 -0.25586,0.705079 V 32.640626 c 0,0.72533 -0.17039,1.299894 -0.51172,1.726561 -0.29867,0.426666 -0.72658,0.640626 -1.28125,0.640626 -0.55467,0 -1.00242,-0.21396 -1.34375,-0.640626 -0.34133,-0.426667 -0.51172,-1.001231 -0.51172,-1.726561 V 0.96093666 c 0,-0.298667 -0.0852,-0.534411 -0.25586,-0.705079 -0.17066,-0.170665 -0.40641,-0.2558590076502 -0.70507,-0.2558590076502 z"
     id="rect1-6" />
</svg>